<?xml version="1.0" encoding="utf-8"?>
<svg viewBox="0 0 415.178 149.489" xmlns="http://www.w3.org/2000/svg" bx="https://boxy-svg.com">
  <defs>
    <style fonts="Inter">@import url(https://fonts.googleapis.com/css2?family=Inter%3Aital%2Cwght%400%2C100..900&amp;display=swap);</style>
  </defs>
  <g id="surface1" transform="matrix(0.9999999999999999, 0, 0, 0.9999999999999999, 0, 0)">
    <path style=" stroke:none;fill-rule:nonzero;fill:rgb(0%,0%,0%);fill-opacity:1;" d="M 3.101562 30.199219 C 2.757812 33.976562 2.757812 37.75 3.792969 41.867188 C 5.171875 47.359375 7.929688 52.507812 10.691406 56.625 C 15.171875 62.460938 20.691406 67.605469 26.207031 71.382812 C 31.035156 75.15625 35.863281 77.558594 40.34375 80.648438 C 28.277344 101.238281 14.136719 126.289062 2.757812 146.195312 L 16.207031 146.195312 C 27.585938 126.632812 40 103.984375 50.34375 86.824219 C 54.484375 88.882812 58.277344 91.972656 61.722656 94.71875 C 65.515625 97.808594 68.277344 100.894531 71.378906 104.328125 C 74.484375 108.101562 76.550781 112.21875 78.621094 116.339844 C 81.035156 122.859375 82.414062 130.753906 76.898438 136.929688 C 73.449219 140.019531 70 140.363281 66.550781 139.332031 C 62.757812 138.300781 60.34375 135.558594 59.308594 132.8125 C 59.65625 131.4375 62.070312 131.4375 63.792969 128.691406 C 66.207031 124.917969 67.242188 121.144531 66.550781 116.683594 C 65.863281 112.5625 63.792969 109.476562 60.691406 107.074219 C 58.621094 105.699219 56.207031 105.699219 54.136719 105.699219 C 52.070312 105.355469 49.308594 106.042969 47.929688 106.730469 C 46.207031 107.757812 44.828125 109.476562 43.792969 111.535156 C 42.757812 113.59375 42.414062 116.339844 42.414062 119.085938 C 42.757812 123.546875 43.792969 127.664062 45.863281 131.78125 C 47.929688 135.558594 50.691406 138.644531 54.484375 141.390625 C 60 145.164062 65.863281 146.539062 72.070312 146.195312 C 78.277344 145.507812 83.792969 143.105469 88.621094 138.300781 C 93.449219 133.15625 96.550781 126.976562 97.242188 119.769531 C 97.585938 115.996094 97.585938 112.21875 96.550781 108.101562 C 95.863281 105.011719 94.828125 102.269531 93.792969 99.867188 C 92.070312 94.71875 87.242188 89.914062 83.792969 86.480469 C 81.035156 83.738281 77.929688 80.992188 74.136719 78.246094 C 69.308594 74.46875 64.484375 72.066406 60 68.980469 C 72.070312 48.386719 86.207031 23.335938 97.585938 3.433594 L 84.136719 3.433594 C 73.101562 22.648438 60 45.300781 50 62.800781 C 46.207031 61.429688 41.722656 57.65625 38.277344 54.910156 C 34.484375 51.820312 31.378906 49.074219 28.621094 45.300781 C 25.515625 41.523438 23.449219 38.09375 21.378906 33.289062 C 20.34375 30.542969 19.65625 27.796875 19.308594 24.710938 C 18.621094 19.5625 19.65625 16.128906 23.101562 12.355469 C 26.550781 9.265625 29.308594 8.921875 33.449219 9.953125 C 37.242188 10.980469 39.65625 13.382812 40.691406 16.472656 C 39.308594 18.1875 37.242188 18.53125 36.207031 20.589844 C 33.792969 24.367188 32.757812 28.140625 33.449219 32.601562 C 34.136719 36.71875 36.207031 39.808594 39.308594 42.210938 C 41.378906 43.585938 43.792969 43.585938 45.863281 43.585938 C 48.621094 43.585938 50 43.242188 52.070312 42.554688 C 53.792969 41.523438 55.171875 39.808594 56.207031 37.75 C 57.242188 35.691406 57.585938 32.945312 57.585938 29.855469 C 57.242188 25.394531 56.207031 21.277344 54.136719 17.503906 C 52.070312 13.726562 49.308594 10.636719 45.515625 7.894531 C 43.101562 6.175781 40.34375 5.148438 37.929688 4.460938 C 34.136719 3.433594 30 3.433594 26.207031 3.773438 C 23.792969 4.117188 21.035156 4.804688 18.277344 6.175781 C 15.515625 7.550781 13.792969 9.265625 11.378906 11.667969 C 6.550781 16.816406 3.792969 23.679688 3.101562 30.199219 Z M 74.484375 60.742188 C 74.484375 63.144531 75.863281 65.890625 78.277344 66.921875 C 80.34375 67.949219 83.101562 67.261719 85.171875 66.234375 C 86.898438 64.863281 87.585938 62.800781 87.585938 61.085938 C 87.585938 57.65625 85.515625 55.253906 82.757812 54.566406 C 81.035156 54.222656 78.621094 54.566406 76.722656 55.9375 C 74.828125 57.3125 74.828125 59.027344 74.484375 60.742188 Z M 14.484375 92.660156 C 15.515625 94.375 17.585938 95.746094 20.34375 96.089844 C 23.101562 96.433594 25.171875 94.71875 26.207031 92.316406 C 27.585938 89.914062 26.898438 86.824219 25.171875 84.765625 C 23.449219 82.363281 20.691406 82.363281 17.929688 83.050781 C 15.863281 83.394531 14.828125 85.109375 13.964844 86.996094 C 13.101562 88.882812 13.449219 90.941406 14.484375 92.660156 Z M 14.484375 92.660156 "/>
  </g>
  <text style="font-family: Inter; font-size: 80px; font-weight: 700; white-space: pre;" x="95.091" y="100.742" transform="matrix(0.9999999999999999, 0, 0, 0.9999999999999999, 0, 0)">olfeggio</text>
</svg>