<?xml version="1.0" standalone="no"?>
<!DOCTYPE svg PUBLIC "-//W3C//DTD SVG 20010904//EN"
 "http://www.w3.org/TR/2001/REC-SVG-20010904/DTD/svg10.dtd">
<svg version="1.0" xmlns="http://www.w3.org/2000/svg"
 width="512.000000pt" height="512.000000pt" viewBox="0 0 512.000000 512.000000"
 preserveAspectRatio="xMidYMid meet">

<g transform="translate(0.000000,512.000000) scale(0.100000,-0.100000)"
fill="#000000" stroke="none">
<path d="M2220 5104 c-444 -60 -857 -233 -1223 -511 -131 -100 -370 -339 -470
-470 -282 -371 -453 -784 -512 -1236 -20 -157 -20 -497 0 -654 59 -452 230
-865 512 -1236 100 -131 339 -370 470 -470 371 -282 784 -453 1236 -512 157
-20 497 -20 654 0 452 59 865 230 1236 512 131 100 370 339 470 470 282 371
453 784 512 1236 20 157 20 497 0 654 -59 452 -230 865 -512 1236 -100 131
-339 370 -470 470 -371 282 -784 453 -1236 512 -150 19 -520 19 -667 -1z m722
-323 c732 -135 1342 -597 1650 -1249 142 -299 206 -569 215 -902 12 -418 -77
-794 -269 -1148 -75 -137 -253 -390 -266 -377 -3 2 -19 49 -37 103 -58 180
-175 397 -288 537 -63 77 -205 221 -282 284 -126 104 -330 225 -457 270 l-33
12 35 27 c268 205 430 528 430 856 0 356 -152 660 -440 878 -86 66 -265 152
-368 178 -253 63 -506 38 -737 -75 -328 -159 -554 -463 -605 -813 -17 -115 -8
-316 19 -415 32 -122 84 -239 147 -334 57 -86 184 -224 254 -275 l35 -26 -55
-23 c-215 -89 -397 -214 -580 -398 -205 -206 -341 -425 -425 -682 -18 -55 -34
-102 -37 -104 -14 -14 -194 244 -270 385 -193 362 -276 719 -265 1140 9 347
77 621 232 935 318 645 949 1109 1660 1219 154 24 156 24 400 21 174 -3 256
-9 337 -24z m-140 -848 c261 -91 441 -286 509 -553 23 -90 18 -288 -9 -385
-55 -192 -190 -366 -358 -461 -439 -247 -989 -21 -1126 461 -27 97 -32 295 -9
385 64 250 229 442 463 537 105 43 171 53 313 49 114 -2 141 -7 217 -33z m-94
-1834 c620 -67 1110 -493 1261 -1097 11 -42 22 -100 26 -127 l6 -50 -83 -61
c-123 -90 -162 -116 -275 -178 -666 -368 -1500 -368 -2166 0 -113 62 -153 88
-275 178 -45 33 -82 66 -82 74 0 38 44 221 71 299 223 632 857 1034 1517 962z"/>
</g>
</svg>
